<svg width="800" height="800" viewBox="0 0 32 32" xmlns="http://www.w3.org/2000/svg" xmlns:xlink="http://www.w3.org/1999/xlink" fill="#FFFFFF" overflow="hidden"><g id="SVGRepo_bgCarrier" stroke-width="0"></g><g id="SVGRepo_tracerCarrier" stroke-linecap="round" stroke-linejoin="round"></g><g id="SVGRepo_iconCarrier"><path d="M18.605 2.022 18.605 2.022ZM18.605 2.022 16.349 13.878 24.523 13.905 13.396 29.977 15.653 16.934 7.479 16.905ZM18.606 0.023C18.552 0.023 18.498 0.025 18.445 0.029 18.092 0.057 17.858 0.176 17.581 0.362 17.427 0.464 17.286 0.59 17.162 0.735 17.125 0.778 17.091 0.823 17.059 0.869L5.852 15.701C5.41 16.308 5.344 17.108 5.684 17.777 6.024 18.446 6.71 18.87 7.463 18.876L13.236 18.918 11.421 29.612C11.249 30.531 11.739 31.447 12.601 31.816 12.858 31.926 13.128 31.979 13.394 31.979 14.023 31.979 14.539 31.685 14.927 31.154L26.147 15.082C26.589 14.475 26.654 13.674 26.315 13.006 25.975 12.337 25.289 11.913 24.536 11.908L18.763 11.898 20.559 2.496C20.597 2.345 20.616 2.188 20.616 2.026 20.616 0.944 19.755 0.062 18.677 0.027 18.653 0.026 18.63 0.026 18.606 0.026L18.606 0.026Z"/></g></svg>