<svg width="120" height="113" xmlns="http://www.w3.org/2000/svg" xmlns:xlink="http://www.w3.org/1999/xlink" xml:space="preserve" overflow="hidden"><defs><clipPath id="clip0"><rect x="713" y="546" width="120" height="113"/></clipPath></defs><g clip-path="url(#clip0)" transform="translate(-713 -546)"><path d="M99.7611 3.30521C98.6122 3.30521 97.6807 4.2367 97.6807 5.38556L97.6807 102.771C97.6807 103.094 97.756 103.413 97.9004 103.702L103.506 114.912C103.859 115.617 104.579 116.062 105.367 116.062 106.155 116.062 106.875 115.617 107.228 114.912L112.833 103.702C112.978 103.413 113.053 103.095 113.053 102.771L113.053 5.38556C113.053 4.2367 112.122 3.30521 110.973 3.30521L99.7611 3.30521ZM108.892 102.28 105.367 109.33 101.841 102.28 101.841 7.46592 108.892 7.46592 108.892 102.28Z" fill="#FFFFFF" transform="matrix(1.0053 0 0 1 713 542.816)"/><path d="M115.206 18.1599 115.206 51.3477C115.206 52.4966 116.138 53.4281 117.287 53.4281 118.436 53.4281 119.367 52.4966 119.367 51.3477L119.367 18.1599C119.367 17.0111 118.436 16.0796 117.287 16.0796 116.138 16.0796 115.206 17.0111 115.206 18.1599Z" fill="#FFFFFF" transform="matrix(1.0053 0 0 1 713 542.816)"/><path d="M70.5144 62.2406 17.845 62.2406C16.6962 62.2406 15.7647 63.1725 15.7647 64.3213 15.7647 65.4702 16.6962 66.4013 17.845 66.4013L70.5144 66.4013C71.6632 66.4013 72.5947 65.4702 72.5947 64.3213 72.5947 63.1725 71.6632 62.2406 70.5144 62.2406Z" fill="#FFFFFF" transform="matrix(1.0053 0 0 1 713 542.816)"/><path d="M70.5144 93.0237 17.845 93.0237C16.6962 93.0237 15.7647 93.9552 15.7647 95.104 15.7647 96.2529 16.6962 97.1844 17.845 97.1844L70.5144 97.1844C71.6632 97.1844 72.5947 96.2529 72.5947 95.104 72.5947 93.9552 71.6632 93.0237 70.5144 93.0237Z" fill="#FFFFFF" transform="matrix(1.0053 0 0 1 713 542.816)"/><path d="M70.5144 48.8787 17.845 48.8787C16.6962 48.8787 15.7647 49.8102 15.7647 50.9591 15.7647 52.108 16.6962 53.0395 17.845 53.0395L70.5144 53.0395C71.6632 53.0395 72.5947 52.108 72.5947 50.9591 72.5947 49.8102 71.6632 48.8787 70.5144 48.8787Z" fill="#FFFFFF" transform="matrix(1.0053 0 0 1 713 542.816)"/><path d="M17.845 39.6788 49.1124 39.6788C50.2612 39.6788 51.1927 38.7469 51.1927 37.598 51.1927 36.4492 50.2612 35.518 49.1124 35.518L17.845 35.518C16.6962 35.518 15.7647 36.4492 15.7647 37.598 15.7647 38.7469 16.6962 39.6788 17.845 39.6788Z" fill="#FFFFFF" transform="matrix(1.0053 0 0 1 713 542.816)"/><path d="M17.845 26.3173 49.1124 26.3173C50.2612 26.3173 51.1927 25.3862 51.1927 24.2373 51.1927 23.0884 50.2612 22.1566 49.1124 22.1566L17.845 22.1566C16.6962 22.1566 15.7647 23.0884 15.7647 24.2373 15.7647 25.3862 16.6962 26.3173 17.845 26.3173Z" fill="#FFFFFF" transform="matrix(1.0053 0 0 1 713 542.816)"/><path d="M2.07469 115.895 86.2847 115.895C87.4306 115.895 88.3594 114.966 88.3594 113.82L88.3594 33.2082 88.3594 33.2082 88.3594 33.2082C88.3594 33.2052 88.359 33.2025 88.359 33.1999 88.3587 33.133 88.3552 33.0664 88.3488 33.0014 88.3439 32.9508 88.3352 32.9012 88.3265 32.8517 88.3235 32.8347 88.322 32.8173 88.319 32.8003 88.3072 32.7421 88.2921 32.6839 88.2755 32.6268 88.2732 32.6192 88.2717 32.6117 88.2694 32.6037 88.2517 32.547 88.2309 32.4907 88.2089 32.4351 88.2059 32.4279 88.2037 32.4204 88.201 32.4132 88.1795 32.361 88.1549 32.3107 88.1288 32.2612 88.1235 32.251 88.1193 32.2397 88.1137 32.2295 88.0895 32.1845 88.0623 32.141 88.035 32.0975 88.026 32.0835 88.018 32.0684 88.009 32.0548 87.9829 32.0159 87.9538 31.9784 87.9247 31.941 87.9122 31.9248 87.9005 31.9074 87.8876 31.8911 87.8517 31.8476 87.8131 31.8061 87.7731 31.7652 87.7655 31.7573 87.7595 31.749 87.7515 31.7414L60.0888 4.07906C60.0408 4.03105 59.9905 3.98606 59.9387 3.94334 59.9251 3.93238 59.9103 3.92255 59.8967 3.91196 59.857 3.88096 59.817 3.84996 59.7758 3.82237 59.7637 3.81443 59.7504 3.80725 59.738 3.79931 59.6933 3.77058 59.648 3.7426 59.6015 3.71727 59.5932 3.71274 59.5837 3.70933 59.5754 3.7048 59.5236 3.67796 59.4714 3.65225 59.4178 3.63032 59.4117 3.62768 59.4057 3.62579 59.4 3.62352 59.3433 3.60046 59.2854 3.57967 59.2272 3.56152 59.2204 3.55963 59.214 3.5585 59.2072 3.5566 59.1493 3.53922 59.0904 3.52409 59.0306 3.512 59.0144 3.50897 58.997 3.50746 58.9807 3.50444 58.9305 3.49574 58.8802 3.48667 58.8295 3.48175 58.7611 3.47457 58.6919 3.47117 58.6224 3.47117L58.6224 3.47117 2.07469 3.47117C0.928846 3.47155 0 4.40039 0 5.54623L0 113.82C0 114.966 0.928846 115.895 2.07469 115.895ZM81.2768 31.1343 60.6986 31.1365 60.6974 10.5556 81.2768 31.1343ZM4.14937 7.6213 56.5477 7.6213 56.5492 33.2116C56.5492 33.762 56.7677 34.2898 57.1567 34.6788 57.5457 35.0674 58.0738 35.2859 58.6239 35.2859L84.2104 35.2829 84.2104 111.746 4.14937 111.746 4.14937 7.6213Z" fill="#FFFFFF" transform="matrix(1.0053 0 0 1 713 542.816)"/></g></svg>