<svg width="126" height="113" xmlns="http://www.w3.org/2000/svg" xmlns:xlink="http://www.w3.org/1999/xlink" xml:space="preserve" overflow="hidden"><g transform="translate(-495 -13)"><path d="M73.4883 116.356 30.6201 116.356C23.8557 116.356 18.3721 110.873 18.3721 104.108L18.3721 42.8682C18.3721 36.1038 23.8557 30.6201 30.6201 30.6201L116.356 30.6201C123.121 30.6201 128.605 36.1038 128.605 42.8682L128.605 76.5503" stroke="#FFFFFF" stroke-width="6.12402" stroke-linecap="round" stroke-linejoin="round" fill="none" transform="matrix(1.00086 0 0 1 481.363 -12.9517)"/><path d="M116.356 97.9844 116.356 134.729" stroke="#FFFFFF" stroke-width="6.12402" stroke-linecap="round" stroke-linejoin="round" fill="none" transform="matrix(1.00086 0 0 1 481.363 -12.9517)"/><path d="M134.729 116.356 116.356 134.729 97.9844 116.356" stroke="#FFFFFF" stroke-width="6.12402" stroke-linecap="round" stroke-linejoin="round" fill="none" transform="matrix(1.00086 0 0 1 481.363 -12.9517)"/><path d="M18.3721 42.8682 73.4883 79.6123 128.605 42.8682" stroke="#FFFFFF" stroke-width="6.12402" stroke-linecap="round" stroke-linejoin="round" fill="none" transform="matrix(1.00086 0 0 1 481.363 -12.9517)"/></g></svg>