<svg width="591" height="592" xmlns="http://www.w3.org/2000/svg" xmlns:xlink="http://www.w3.org/1999/xlink" xml:space="preserve" overflow="hidden"><g transform="translate(-3390 -1172)"><path d="M3564.14 1545.57C3534.69 1500.12 3533.21 1441.98 3560.32 1395.09L3685.07 1467.21Z" fill="#E86F6F" fill-rule="evenodd"/><path d="M3686.02 1323.11C3765.61 1323.64 3829.69 1388.58 3829.17 1468.16 3828.64 1547.74 3763.7 1611.83 3684.12 1611.3 3632.95 1610.96 3585.8 1583.52 3560.24 1539.19L3685.07 1467.21Z" fill="#E7B75C" fill-rule="evenodd"/><path d="M3409.5 1468C3409.5 1315.29 3533.07 1191.5 3685.5 1191.5 3837.93 1191.5 3961.5 1315.29 3961.5 1468 3961.5 1620.71 3837.93 1744.5 3685.5 1744.5 3533.07 1744.5 3409.5 1620.71 3409.5 1468Z" stroke="#FFFFFF" stroke-width="38.9583" stroke-miterlimit="8" fill="none" fill-rule="evenodd"/><path d="M0 0 0.000360892 168.898" stroke="#FFFFFF" stroke-width="38.9583" stroke-linecap="round" stroke-miterlimit="8" fill="none" fill-rule="evenodd" transform="matrix(1 0 0 -1 3685.5 1465.4)"/><path d="M3685.07 1465.36 3538.8 1549.81" stroke="#FFFFFF" stroke-width="38.9583" stroke-linecap="round" stroke-miterlimit="8" fill="none" fill-rule="evenodd"/><g><g><g><path d="M3567.33 1367.17 3610.67 1367.17" stroke="#FFFFFF" stroke-width="8.125" stroke-linecap="round" stroke-linejoin="round" fill="none"/><path d="M3551.08 1350.92 3626.92 1350.92" stroke="#FFFFFF" stroke-width="8.125" stroke-linecap="round" stroke-linejoin="round" fill="none"/><path d="M3534.83 1334.67 3643.17 1334.67" stroke="#FFFFFF" stroke-width="8.125" stroke-linecap="round" stroke-linejoin="round" fill="none"/><path d="M3638.11 1312.22 3634.64 1310.12 3638.11 1312.22ZM3589.78 1263.89 3587.67 1260.41 3587.67 1260.41 3589.78 1263.89ZM3538.9 1313C3538.9 1285.33 3561.33 1262.9 3589 1262.9L3589 1254.77C3556.84 1254.77 3530.77 1280.84 3530.77 1313L3538.9 1313ZM3607.96 1325.19C3590.76 1325.19 3576.81 1311.24 3576.81 1294.04L3568.69 1294.04C3568.69 1315.73 3586.27 1333.31 3607.96 1333.31L3607.96 1325.19ZM3634.64 1310.12C3629.18 1319.16 3619.27 1325.19 3607.96 1325.19L3607.96 1333.31C3622.23 1333.31 3634.72 1325.7 3641.59 1314.33L3634.64 1310.12ZM3576.81 1294.04C3576.81 1282.73 3582.84 1272.82 3591.88 1267.36L3587.67 1260.41C3576.3 1267.28 3568.69 1279.77 3568.69 1294.04L3576.81 1294.04ZM3639.1 1313C3639.1 1320.13 3637.62 1326.91 3634.94 1333.04L3642.38 1336.29C3645.5 1329.15 3647.23 1321.27 3647.23 1313L3639.1 1313ZM3543.06 1333.04C3540.38 1326.91 3538.9 1320.13 3538.9 1313L3530.77 1313C3530.77 1321.27 3532.5 1329.15 3535.62 1336.29L3543.06 1333.04ZM3589 1262.9C3588.52 1262.9 3587.96 1262.68 3587.55 1262.26 3587.21 1261.9 3587.12 1261.56 3587.11 1261.42 3587.08 1261.25 3587.09 1260.76 3587.67 1260.41L3591.88 1267.36C3594.6 1265.72 3595.48 1262.7 3595.16 1260.33 3594.83 1257.87 3592.88 1254.77 3589 1254.77L3589 1262.9ZM3641.59 1314.33C3641.24 1314.91 3640.75 1314.92 3640.58 1314.89 3640.45 1314.88 3640.1 1314.8 3639.75 1314.45 3639.32 1314.04 3639.1 1313.48 3639.1 1313L3647.23 1313C3647.23 1309.12 3644.13 1307.18 3641.67 1306.84 3639.3 1306.52 3636.28 1307.4 3634.64 1310.12L3641.59 1314.33Z" fill="#FFFFFF"/><path d="M3631.79 1260.5C3630.92 1258.28 3627.79 1258.28 3626.92 1260.5L3624.59 1266.43C3624.32 1267.11 3623.79 1267.64 3623.11 1267.91L3617.2 1270.25C3614.99 1271.13 3614.99 1274.27 3617.2 1275.14L3623.11 1277.48C3623.79 1277.75 3624.32 1278.28 3624.59 1278.96L3626.92 1284.89C3627.79 1287.11 3630.92 1287.11 3631.79 1284.89L3634.12 1278.96C3634.39 1278.28 3634.92 1277.75 3635.6 1277.48L3641.51 1275.14C3643.72 1274.27 3643.72 1271.13 3641.51 1270.25L3635.6 1267.91C3634.92 1267.64 3634.39 1267.11 3634.12 1266.43L3631.79 1260.5Z" stroke="#FFFFFF" stroke-width="5.41666" fill="none"/><path d="M3610.84 1292.04C3609.97 1289.82 3606.84 1289.82 3605.97 1292.04L3605.12 1294.2C3604.86 1294.88 3604.32 1295.41 3603.65 1295.68L3601.49 1296.53C3599.28 1297.41 3599.28 1300.55 3601.49 1301.42L3603.65 1302.28C3604.32 1302.54 3604.86 1303.08 3605.12 1303.76L3605.97 1305.92C3606.84 1308.14 3609.97 1308.14 3610.84 1305.92L3611.69 1303.76C3611.96 1303.08 3612.49 1302.54 3613.17 1302.28L3615.32 1301.42C3617.54 1300.55 3617.54 1297.41 3615.32 1296.53L3613.17 1295.68C3612.49 1295.41 3611.96 1294.88 3611.69 1294.2L3610.84 1292.04Z" stroke="#FFFFFF" stroke-width="5.41666" fill="none"/></g></g></g></g></svg>